HIERARCHY
ROOT joint_0
{
	OFFSET 0.000000 0.000000 0.000000
	CHANNELS 6 Xposition Yposition Zposition Zrotation Yrotation Xrotation 
	JOINT joint_1
	{
		OFFSET 0.587158 0.057678 95.682007
		CHANNELS 3 Zrotation Yrotation Xrotation
		JOINT joint_2
		{
			OFFSET -7.116699 -0.219910 87.157959
			CHANNELS 3 Zrotation Yrotation Xrotation
			JOINT joint_3
			{
				OFFSET -5.892822 -0.290222 87.151001
				CHANNELS 3 Zrotation Yrotation Xrotation
				JOINT joint_4
				{
					OFFSET 5.544678 -0.099609 123.768066
					CHANNELS 3 Zrotation Yrotation Xrotation
					JOINT joint_5
					{
						OFFSET 41.981201 4.519775 84.257935
						CHANNELS 3 Zrotation Yrotation Xrotation
						End Site
						{
							OFFSET 0.000000 0.000000 0.000000
						}
					}
				}
				JOINT joint_6
				{
					OFFSET 3.940918 -26.976501 69.308105
					CHANNELS 3 Zrotation Yrotation Xrotation
					JOINT joint_7
					{
						OFFSET 4.776123 -152.592468 -16.842041
						CHANNELS 3 Zrotation Yrotation Xrotation
						JOINT joint_8
						{
							OFFSET 54.421875 -30.424072 -248.864014
							CHANNELS 3 Zrotation Yrotation Xrotation
							JOINT joint_9
							{
								OFFSET 42.120117 -33.387878 -236.524963
								CHANNELS 3 Zrotation Yrotation Xrotation
								End Site
								{
									OFFSET 0.000000 0.000000 0.000000
								}
							}
						}
					}
				}
				JOINT joint_10
				{
					OFFSET 2.312012 26.904114 69.425049
					CHANNELS 3 Zrotation Yrotation Xrotation
					JOINT joint_11
					{
						OFFSET 0.971436 152.197815 -20.626953
						CHANNELS 3 Zrotation Yrotation Xrotation
						JOINT joint_12
						{
							OFFSET 49.954102 28.991455 -249.970093
							CHANNELS 3 Zrotation Yrotation Xrotation
							JOINT joint_13
							{
								OFFSET 48.146973 19.598389 -236.919922
								CHANNELS 3 Zrotation Yrotation Xrotation
								End Site
								{
									OFFSET 0.000000 0.000000 0.000000
								}
							}
						}
					}
				}
			}
		}
	}
	JOINT joint_14
	{
		OFFSET 16.305664 -89.442932 -108.224976
		CHANNELS 3 Zrotation Yrotation Xrotation
		JOINT joint_15
		{
			OFFSET -22.282471 13.437134 -412.904968
			CHANNELS 3 Zrotation Yrotation Xrotation
			JOINT joint_16
			{
				OFFSET -45.426025 14.484802 -445.892029
				CHANNELS 3 Zrotation Yrotation Xrotation
				JOINT joint_17
				{
					OFFSET 173.389404 -9.944031 -76.473001
					CHANNELS 3 Zrotation Yrotation Xrotation
					End Site
					{
						OFFSET 0.000000 0.000000 0.000000
					}
				}
			}
		}
	}
	JOINT joint_18
	{
		OFFSET 13.392822 89.408875 -108.653992
		CHANNELS 3 Zrotation Yrotation Xrotation
		JOINT joint_19
		{
			OFFSET -29.032959 24.483521 -411.977966
			CHANNELS 3 Zrotation Yrotation Xrotation
			JOINT joint_20
			{
				OFFSET -30.530029 28.986328 -446.453018
				CHANNELS 3 Zrotation Yrotation Xrotation
				JOINT joint_21
				{
					OFFSET 170.330078 33.400757 -76.698997
					CHANNELS 3 Zrotation Yrotation Xrotation
					End Site
					{
						OFFSET 0.000000 0.000000 0.000000
					}
				}
			}
		}
	}
}
MOTION
Frames: 12
Frame Time: 0.016667
-2252.002441 849.379150 1062.926025 2.108655 1.181345 1.493311 0.113717 -2.636193 -0.585365 0.139642 0.418511 0.154166 0.112859 -0.498765 -0.078976 -0.277446 -3.821475 0.965078 0.000000 0.000000 0.000000 -7.795573 3.733735 -1.194779 2.785403 3.080282 -0.041359 9.100973 -62.947136 -2.584276 0.000000 0.000000 0.000000 3.865762 3.404117 1.826932 2.513777 2.260283 3.919457 -6.655799 -65.945399 -6.670919 0.000000 0.000000 0.000000 -0.155121 -3.263093 -2.151889 -0.010166 5.225428 -0.322731 -0.277265 -3.118695 -0.300323 0.000000 0.000000 0.000000 -0.457526 -7.199749 -2.665388 0.531124 11.268667 -1.925745 -0.529353 -3.384971 0.426309 0.000000 0.000000 0.000000 
-2250.474609 848.872314 1063.092041 2.056682 1.310278 1.472410 0.042794 -2.574162 -0.386145 0.045935 0.462116 0.111030 0.021534 -0.519799 -0.053748 -0.196908 -4.139768 0.827633 0.000000 0.000000 0.000000 -9.906055 2.921660 -1.698113 3.853932 2.290238 0.122514 10.515714 -67.772337 -2.591440 0.000000 0.000000 0.000000 4.667141 3.027720 2.136474 2.929689 1.546834 4.048283 -6.993598 -70.888101 -7.373574 0.000000 0.000000 0.000000 -0.149982 -3.180536 -2.082517 -0.016326 4.931601 -0.336313 -0.271216 -2.871053 -0.283424 0.000000 0.000000 0.000000 -0.467847 -7.484274 -2.556926 0.569022 11.720740 -2.006883 -0.536980 -3.547928 0.454985 0.000000 0.000000 0.000000 
-2248.652344 848.273254 1063.306030 1.900154 1.571239 1.447724 -0.134848 -1.995419 -0.104165 -0.155179 0.415124 0.032584 -0.170382 -0.443305 -0.001045 -0.070113 -5.032214 0.648073 0.000000 0.000000 0.000000 -11.614664 1.646450 -2.417715 5.239151 1.367840 0.984630 11.964005 -72.175499 -3.051086 0.000000 0.000000 0.000000 4.797748 3.376309 2.704594 3.813418 1.461397 4.243766 -6.853078 -77.098339 -7.601266 0.000000 0.000000 0.000000 -0.140050 -3.195042 -1.985827 -0.012078 4.564926 -0.387264 -0.256445 -2.616272 -0.262330 0.000000 0.000000 0.000000 -0.420628 -7.694636 -2.522561 0.627139 11.821914 -1.945551 -0.492329 -3.644552 0.493824 0.000000 0.000000 0.000000 
-2246.192627 847.721680 1063.621948 1.640429 1.998332 1.419157 -0.355449 -1.187028 0.191012 -0.395725 0.309535 -0.059212 -0.398296 -0.325447 0.063512 0.069510 -6.329840 0.472070 0.000000 0.000000 0.000000 -12.961767 0.079199 -3.168867 6.745950 0.520663 2.002965 13.398027 -76.562359 -3.693321 0.000000 0.000000 0.000000 4.604328 4.131760 3.451262 5.069002 1.624814 4.475111 -6.380931 -83.902249 -7.788135 0.000000 0.000000 0.000000 -0.102836 -3.323425 -1.910438 0.018621 4.122502 -0.408057 -0.210112 -2.336974 -0.225992 0.000000 0.000000 0.000000 -0.330356 -7.913529 -2.525833 0.709806 11.690025 -1.818023 -0.403804 -3.688045 0.541747 0.000000 0.000000 0.000000 
-2241.849121 847.614319 1064.280029 1.185787 2.857575 1.393921 -0.423161 -0.877240 0.298497 -0.473482 0.242628 -0.115564 -0.469285 -0.260942 0.097580 0.151003 -7.757474 0.442993 0.000000 0.000000 0.000000 -13.101845 -1.021583 -3.601211 7.207960 0.242481 1.841799 14.224200 -81.743447 -3.770755 0.000000 0.000000 0.000000 4.263729 4.422557 4.236034 6.667622 1.383221 4.796951 -5.882982 -89.753178 -9.132329 0.000000 0.000000 0.000000 0.044009 -3.815093 -2.018914 0.143520 3.639685 -0.193135 -0.047753 -2.019038 -0.136443 0.000000 0.000000 0.000000 -0.200487 -8.447159 -2.482168 0.856021 11.490656 -1.821946 -0.254453 -3.642956 0.599528 0.000000 0.000000 0.000000 
-2234.674805 848.283386 1065.338989 0.356060 4.534686 1.325508 -0.167303 -1.526794 0.104927 -0.211384 0.264172 -0.110264 -0.210654 -0.275284 0.071647 0.145721 -9.465663 0.684444 0.000000 0.000000 0.000000 -11.102678 -0.554454 -3.507263 5.210877 0.990129 -0.854939 13.639232 -88.973973 -2.884244 0.000000 0.000000 0.000000 3.743577 3.666434 5.115493 8.820966 0.524258 5.359993 174.517205 -85.892926 167.165734 0.000000 0.000000 0.000000 0.405230 -4.981678 -2.456686 0.453786 2.964663 0.496781 0.348722 -1.589285 0.062351 0.000000 0.000000 0.000000 0.007157 -9.374845 -2.361602 1.088552 10.739623 -1.979046 0.009759 -3.423584 0.674455 0.000000 0.000000 0.000000 
-2225.618164 849.397461 1066.739990 -0.688236 6.649725 1.231979 0.198988 -2.688886 -0.326157 0.194329 0.323317 0.029750 0.176387 -0.365180 -0.038640 0.136538 -11.288786 0.971810 0.000000 0.000000 0.000000 -7.682844 0.856192 -3.056071 1.624651 1.977021 -4.790289 -168.066687 -83.087797 178.520910 0.000000 0.000000 0.000000 3.114952 2.065810 6.058866 11.531906 -0.580434 5.984831 175.087627 -82.304733 161.926214 0.000000 0.000000 0.000000 0.870970 -6.536077 -3.108273 0.858426 2.246004 1.439509 0.866744 -1.021976 0.322085 0.000000 0.000000 0.000000 0.258471 -10.615983 -2.213943 1.388132 9.899451 -2.244976 0.351014 -3.054121 0.754171 0.000000 0.000000 0.000000 
-2216.280762 850.358643 1068.547974 -1.490489 8.339825 1.255028 0.404093 -3.781367 -0.866977 0.449558 0.410103 0.274688 0.400952 -0.546629 -0.160437 0.148789 -12.478218 1.121127 0.000000 0.000000 0.000000 -5.015861 1.018512 -2.858182 -1.173659 1.888509 -7.134527 -169.330661 -77.255941 -179.388025 0.000000 0.000000 0.000000 2.344449 0.016508 6.765531 14.510149 -1.850470 6.301154 176.050377 -79.117667 156.886838 0.000000 0.000000 0.000000 1.210721 -7.834408 -3.725934 1.145969 1.980106 2.131918 1.233686 -0.483034 0.513105 0.000000 0.000000 0.000000 0.442147 -12.262773 -2.040488 1.725306 10.578335 -2.768585 0.618067 -2.743320 0.811512 0.000000 0.000000 0.000000 
-2207.260010 850.849243 1070.949951 -1.824430 9.346899 1.434250 0.382340 -4.843653 -1.244092 0.391854 0.589283 0.393463 0.310111 -0.828257 -0.191109 0.140868 -12.511735 1.203139 0.000000 0.000000 0.000000 -4.360136 -2.089809 -3.117949 -2.096700 -0.034618 -6.509509 -168.994455 -75.124511 -174.959649 0.000000 0.000000 0.000000 1.215803 -2.442938 6.801797 18.024665 -3.663226 6.324888 177.639032 -75.943687 152.369160 0.000000 0.000000 0.000000 1.302974 -8.785273 -4.080276 1.192324 2.533347 2.298060 1.286247 -0.101738 0.556595 0.000000 0.000000 0.000000 0.495994 -14.601526 -1.763098 2.061923 13.672087 -3.629273 0.715579 -2.345133 0.774502 0.000000 0.000000 0.000000 
-2197.957764 851.188049 1073.758057 -1.935151 9.959080 1.632099 0.306977 -5.894066 -1.416624 0.151977 0.801325 0.401075 0.012856 -1.129005 -0.192568 0.133434 -11.929629 1.195168 0.000000 0.000000 0.000000 -4.438739 -7.175465 -2.916120 -2.972255 -2.979486 -4.478768 -168.379733 -75.999405 -168.028279 0.000000 0.000000 0.000000 -0.015914 -5.486867 6.206180 22.166865 -5.997435 6.288654 179.752150 -73.438433 147.382253 0.000000 0.000000 0.000000 1.309165 -9.504368 -4.213986 1.120165 3.536571 2.153323 1.174934 0.261011 0.526775 0.000000 0.000000 0.000000 0.516278 -17.356682 -1.279652 2.381121 18.200098 -4.744764 0.711545 -1.556346 0.613730 0.000000 0.000000 0.000000 
-2188.182373 851.733704 1076.473999 -2.006532 10.200759 1.783113 0.304293 -6.469215 -1.604248 -0.096737 0.950955 0.423640 -0.335314 -1.319873 -0.193094 0.149619 -11.580375 1.149109 0.000000 0.000000 0.000000 -3.967461 -11.395750 -2.404608 -4.874150 -5.412637 -2.384506 -168.582510 -77.585286 -161.182894 0.000000 0.000000 0.000000 -0.902318 -8.382092 5.745406 25.938844 -7.888813 6.046960 -178.097975 -72.540071 142.217463 0.000000 0.000000 0.000000 1.412399 -9.716295 -4.302539 1.080742 4.406017 1.941804 1.089004 0.699662 0.511892 0.000000 0.000000 0.000000 0.594557 -19.904088 -0.549736 2.680724 23.085309 -6.065598 0.675529 -0.541367 0.392639 0.000000 0.000000 0.000000 
-2178.206543 852.425537 1078.917969 -1.990450 9.836398 1.898250 0.422191 -6.209512 -1.986866 -0.292058 1.041184 0.531705 -0.690486 -1.330600 -0.186864 0.202319 -11.820694 1.115288 0.000000 0.000000 0.000000 -2.498545 -13.453969 -2.618728 -6.891805 -6.721742 -0.650614 -169.336774 -78.066795 -157.197915 0.000000 0.000000 0.000000 -1.498810 -10.270598 6.268912 27.664613 -8.616092 5.567612 -176.700531 -74.296243 138.718917 0.000000 0.000000 0.000000 1.685974 -9.015929 -4.422003 1.115490 4.867348 1.745842 1.085466 1.207696 0.535584 0.000000 0.000000 0.000000 0.633075 -22.203602 0.641065 2.869718 28.994413 -7.999449 0.446977 0.765266 0.029246 0.000000 0.000000 0.000000 
